<?xml version="1.0" standalone="no"?><!DOCTYPE svg PUBLIC "-//W3C//DTD SVG 1.1//EN" "http://www.w3.org/Graphics/SVG/1.1/DTD/svg11.dtd"><svg t="1701849761330" class="icon" viewBox="0 0 1027 1024" version="1.1" xmlns="http://www.w3.org/2000/svg" p-id="18186" xmlns:xlink="http://www.w3.org/1999/xlink" width="200.5859375" height="200"><path d="M718.30368 749.44l-236.16-229.12V186.88h64v306.56l216.64 209.92-44.48 46.08zM516.70368 1018.56a512 512 0 0 1-362.88-149.76l45.44-45.12a448 448 0 0 0 563.84 56.96l35.2 53.44a512 512 0 0 1-281.6 84.48zM942.94368 789.12l-53.12-35.2A448 448 0 0 0 832.54368 190.08l45.44-45.12a512 512 0 0 1 64.96 644.16z" fill="#e09c0f" p-id="18187"></path><path d="M1027.74368 507.2h-64A451.2 451.2 0 0 0 602.14368 67.84l12.8-64a515.2 515.2 0 0 1 412.8 503.36zM512.54368 1018.88A512 512 0 0 1 410.14368 5.12l12.8 64A448 448 0 0 0 512.54368 954.88z" fill="#e09c0f" p-id="18188"></path></svg>